<svg version="1" xmlns="http://www.w3.org/2000/svg" width="346.667" height="346.667" viewBox="0 0 260.000000 260.000000"><path d="M0 130v130h260V0H0v130zm145.2-99c15.5 4.8 28.5 19.1 31.9 35.1 1.2 5.7.8 20.4-.7 21.9-1.3 1.2-6.4 0-6.4-1.5 0-.8.9-1.7 2-2 2.4-.8 3.2-3.6 2.8-10.1-.3-4.5-.5-4.9-2.8-4.9s-2.5.4-2.8 4.7l-.3 4.8h-4.8c-7.1 0-19.3-3.5-26.9-7.6l-6.7-3.6-5 3c-6.8 4.2-16.6 7.3-25.2 7.9l-7.2.6-.3-4.9c-.3-4.5-.5-4.9-2.8-4.9-2.4 0-2.5.3-2.8 6.5-.3 6.1-.1 6.6 2.5 8.7 3.2 2.6 3 3-1.7 3.5l-3.5.3-.9-6.9c-1.3-9.7.3-18.2 5.3-27.9 2.2-4.2 3.8-8.4 3.4-9.3-.8-2.2 3.7-6.6 6.1-6 1.2.3 3.8-.6 6.6-2.4 12.1-7.7 25.9-9.4 40.2-5zM69.1 66.6c3 .9 5.8 2 6.4 2.5.5.5 1 4 1.2 7.9.1 3.8.7 8.8 1.2 11.1.8 3.3.6 4.7-.6 6.6-1.3 2-2.1 2.2-5 1.7-2.4-.4-3.9-.2-5.1.9-1.8 1.6-7.4 1.1-13.5-1.2-4.2-1.6-6.5-1.3-7.2.9-.6 1.8-1.2 2-4.3 1.4-2-.3-5.9-1.3-8.6-2.1-4.3-1.4-5-1.4-6.4.1-1.2 1.2-1.3 2-.5 3.8.6 1.3 1.4 3.5 1.7 5 .5 2.3.3 2.8-1.3 2.8-2.5 0-3.5-6.6-2.1-14 4-20.9 23.9-33.3 44.1-27.4zm147.5 1.8c3.2 1.5 6.5 2.4 7.5 2.1 2.5-.8 6.9 3.6 6.3 6.2-.3 1.1.6 4.1 2 6.6 1.3 2.6 3 7.3 3.6 10.3 1.3 6.4.5 14.4-1.4 14.4-2 0-2.7-1.2-1.5-2.6.6-.7.9-2.3.7-3.6-.3-2-1.1-2.4-5.8-3-3-.4-8.1-1.3-11.3-1.9-5.1-1-5.9-1-7 .5-1 1.4-2 1.5-6.5.6-2.9-.5-6.1-1.4-7.2-2-3-1.6-5.8-1.2-7 1-1.5 2.8-2.7 2.5-4.6-1.2-1.4-2.7-1.5-4.1-.5-9.9.6-3.7 1.1-9 1.1-11.8 0-4.9 0-4.9 4.3-6.5 2.3-.8 4.9-1.7 5.7-2 3.6-1.4 16.1.3 21.6 2.8zM136.7 78c6.1 3 19.6 7 24 7 2.9 0 2.9.4.3 19.4-2.1 16.2-3.9 21.2-9.5 27-8.1 8.2-22.3 11.2-32.2 6.7-6-2.8-12.8-9.4-15.1-14.9-2.3-5.2-6.7-36.1-5.4-37.3.4-.3 4.5-1.3 9-2.2 4.7-.9 11.5-3.1 15.5-5.1 4-1.9 7.2-3.5 7.3-3.5 0-.1 2.8 1.3 6.1 2.9zM92.5 95.2c.3.7.9 4.4 1.4 8.3 1.1 7.6.7 8.5-4 8.5-5.8 0-9.8-6.2-7.7-12.2 1.5-4.3 9.2-7.7 10.3-4.6zm82.5.3c5.8 3 6.7 9 2 13.6-2.3 2.4-3.7 3-6.2 2.7l-3.3-.3.3-7.5c.1-4.1.4-8.1.7-8.8.6-1.6 3-1.5 6.5.3zm-107.8 8.9h7.7l.7 2.9c.3 1.5 1.9 4.4 3.6 6.3l3 3.4-1.1 8.2c-1.4 10.1-4.4 15.7-10.6 19.4-5.7 3.3-11.2 4-17.2 2.3-5.9-1.6-12.4-7.8-14-13.4-.9-3.2-4.3-25.6-4.3-28.6 0-.4 3.5-.5 7.9-.2 5.4.4 8 .2 8.5-.6s1.9-.9 4.4-.4c2 .4 7.2.8 11.4.7zm139.4.3c4.3.3 7.4.1 7.7-.4.5-.8 10.1.2 11.4 1.2.6.4-2.9 24.2-4 28-1.5 5.2-8 11.7-13.3 13.3-6.2 1.8-10.5 1.5-16.2-1.4-7.4-3.7-10.7-9.1-12.2-20-1.2-8.5-1.2-8.6 1.3-11.2 1.3-1.5 3.2-4.2 4.1-6 1.3-2.5 2.3-3.2 4.6-3.2 1.6 0 3.2-.5 3.6-1.1.3-.6 1.8-.8 3.3-.5 1.4.4 5.8.9 9.7 1.3zM30.5 120.1c.8 5.4-.2 7.3-3.4 6.2-5.7-2-5-11.3.9-11.3 1.4 0 2 1.1 2.5 5.1zm205.9-3.5c3.5 3.4.9 9.4-4 9.4-2.6 0-2.8-.8-1.8-7.3.7-4.1 3-4.9 5.8-2.1zm-140.6 3.7c.5 2.5-2.6 5.7-5.5 5.7-2 0-2.3-.5-2.3-3.4 0-2.4.5-3.6 1.8-3.9 3.2-.9 5.7-.2 6 1.6zm75-1.7c1.7.5 2.2 1.4 2.2 4 0 2.8-.4 3.4-2.2 3.4-2.6 0-5.8-2.7-5.8-5 0-2.9 1.4-3.5 5.8-2.4zm-34 31.9c.7 8.2-1.7 13.5-6 13.5s-5.8-2.7-5.8-10.5v-7.1h5.8l5.7.1.3 4zm-74.3 8.9c0 3.5-.5 5.2-1.7 5.9-2.8 1.8-4.8-.9-4.8-6.5v-4.9l3.3.3c3.1.3 3.2.4 3.2 5.2zm142.5-.5c0 5.5-2 8.2-4.8 6.4-1.7-1-2.8-7.2-1.8-9.9.3-.8 1.9-1.4 3.6-1.4 2.9 0 3 .1 3 4.9zm-104-2.4c0 .3-1.8 2.1-4 4.2l-4.1 3.6.3 7.1c.3 6.3.5 7.2 2.6 8.1 2.4 1 2.5 2.8.7 9-.4 1.5 1.1 4.4 5.4 10.4l6.1 8.4v20.8l-4.2-.3-4.3-.3L99 213l-.5-14.5h-5l-.3 14.8-.3 14.7H78v-26.1c0-17 .4-27.5 1.2-30C81.5 164 91 156.1 98.3 156c1.5 0 2.7.2 2.7.5zm17.4 3.4c.8 5 5.2 9.7 9.8 10.6 7.1 1.3 14.8-4.8 14.8-11.8 0-2.2.4-2.8 1.8-2.5 1.6.3 1.7 2.8 1.7 35.8v35.5l-15.7.3-15.8.3V192c0-29.8.2-36 1.4-36 .8 0 1.6 1.6 2 3.9zm49-2.5c4.6 1.9 10.1 7 12.2 11.4 1.3 2.5 2 6.9 2.4 14.1.4 8.2.8 10.6 2.2 11.4 1.2.8 2.1.7 3.3-.3 2.6-2.1 1.7-20.7-1.2-27.3l-2.2-4.7h3.4c2.9 0 3.5.4 4.5 3.4 1.5 4.5 4.1 6.7 8.9 7.3 3.6.5 4.4.2 7.6-3 1.9-1.9 3.5-4.4 3.5-5.6 0-2 .5-2.1 7.7-2.1 6.3 0 8.4.4 11.8 2.5 7 4 7.5 6.2 7.5 29.9V215h-8v-15.9c0-13.2-.3-16.2-1.6-17.5-1.9-2-2.9-2-4.8 0-1.3 1.3-1.6 4.3-1.6 17.5V215h-33.9l-.3-5.8c-.3-5.6-.3-5.7-3.3-5.7h-3l-.3 12.3-.3 12.3-7.2-.3-7.2-.3-.5-14.5-.5-14.5h-5L161 213l-.5 14.5h-7l-.2-10-.3-10 6-8c6.3-8.4 6.6-9.3 4.4-17.1-.4-1.7 0-2.3 2-2.8 2.5-.6 2.6-.9 2.6-8.2v-7.6l-4.2-3.9c-3.9-3.4-4.1-3.8-2-3.9 1.2 0 3.7.6 5.6 1.4zM49.9 165c1.4 4.8 4.3 7 9.2 7 4.5 0 8.6-3.1 9.7-7.3.6-2.2 1.5-3.3 3.1-3.5 4.5-.7 5.1.3 2.8 5-2 3.9-2.2 6.3-2.7 26.3l-.5 22h-35L36 198l-.5-16.5h-5l-.3 16.7L30 215H20v-19.8c0-22.2.9-25.7 7.1-30.5 4.2-3.1 5.6-3.4 14.5-3.6l7.1-.1 1.2 4zm58.1 13.1c0 15.4-.2 17-1.6 15.9-3.2-2.7-3.5-4.7-1.7-11.1 1.9-6.8 1.3-9-2.8-9.9-4.1-1-3.7-5.2.8-8.9 2.1-1.7 4.1-3.1 4.5-3.1.5 0 .8 7.7.8 17.1zm50.5-14c4 3.5 5 8.9 1.7 8.9-1 0-2.6.6-3.6 1.3-1.8 1.3-1.8 1.6 0 8.4 1.8 6.9 1.7 7-.3 9.6-1.1 1.5-2.3 2.3-2.7 2-1-1.1-.7-33.3.4-33.3.5 0 2.5 1.4 4.5 3.1z"/><path d="M110.4 99.4c-1.1 2.9 0 5.1 2.6 5.1 2.1 0 2.5-.5 2.5-3 0-2.4-.5-3.1-2.3-3.3-1.3-.2-2.4.3-2.8 1.2zM145.5 99c-.4.6-.4 2.2-.1 3.6.5 1.9 1.2 2.5 2.9 2.2 3.2-.4 3.2-6.2 0-6.6-1.1-.2-2.4.2-2.8.8zM117.3 112.6c-1.5 4.1 5.8 9.4 12.9 9.4 6.9 0 13.8-4.1 13.8-8.2 0-3-2.8-3.2-6.8-.4-4.8 3.3-9.2 3.3-13 .1-3.4-2.9-6-3.2-6.9-.9zM43.4 117.4c-1.1 2.9 0 5.1 2.6 5.1 2.1 0 2.5-.5 2.5-3 0-2.4-.5-3.1-2.3-3.3-1.3-.2-2.4.3-2.8 1.2zM70 119c0 3.6 2.4 5 4.7 2.7 2.2-2.2.8-5.7-2.3-5.7-2 0-2.4.5-2.4 3zM48.3 127.6c-.4 1 .6 2.7 2.6 4.7 2.7 2.7 3.9 3.2 8 3.2 5.9 0 10.4-2.8 10.9-6.8.3-2.3-.1-2.7-2.1-2.7-1.4 0-3 .6-3.6 1.4-1.9 2.3-4.9 2.5-8.8.5-4.5-2.3-6.2-2.4-7-.3zM185.6 117.8c-1 3 .4 5.3 2.8 5 3.1-.4 3-6.2-.1-6.6-1.4-.2-2.3.3-2.7 1.6zM212.4 117.4c-1.1 2.9 0 5.1 2.6 5.1 2.1 0 2.5-.5 2.5-3 0-2.4-.5-3.1-2.3-3.3-1.3-.2-2.4.3-2.8 1.2zM191 128.4c0 5 9.1 9 14.9 6.6 3.9-1.6 7.5-5.5 6.8-7.4-.9-2.2-3.3-2-7.2.4-2.6 1.6-3.8 1.8-5.8 1.1-1.4-.5-2.8-1.5-3.2-2-.3-.6-1.7-1.1-3.1-1.1-1.9 0-2.4.5-2.4 2.4z"/></svg>