<svg version="1" xmlns="http://www.w3.org/2000/svg" width="346.667" height="346.667" viewBox="0 0 260.000000 260.000000"><path d="M0 130v130h260V0H0v130zM186 11c0 .5 1 1 2.3 1 1.2 0 4.6 1.4 7.5 3.1 9.2 5.3 13.9 15.9 11.3 25.7-1.5 5.8-5.7 11.8-10 14.4-2 1.2-3.7 2.3-3.9 2.4-.2.1.6 3.3 1.8 7.1 1.5 4.8 2.2 9.5 2.2 16.3.1 14.7-3.6 26-12.3 37.7-2.1 2.9-3.9 5.7-3.9 6.3 0 .6 3.9 5 8.8 9.9 17 17.2 26.2 30.2 30.8 43.8 2.2 6.5 2.5 9 2.1 14.9-.9 12-6.9 21.3-15.2 23.5-6.1 1.6-6.5 2-8.4 7.6-2.3 6.7-6.3 12.5-10.9 15.7-7.2 4.9-8.1 5-37.4 4.8L131 245l-.2-49.3-.3-49.2-7-.8c-26.9-2.8-49.9-21.2-57.8-46.2-1.7-5.5-2.2-9.4-2.2-18 0-12.3 1.6-18.9 6.8-29.4 2.5-5.1 2.9-6.5 1.8-6.9-.8-.3-2.5-1.6-3.8-3-3.5-3.7-3.2-10.2.6-14.4 2.5-2.8 3.6-3.3 7.6-3.3 4.2 0 5.1.4 7.9 3.7l3.2 3.7 3.8-2.5c4.6-3.2 15.2-7.6 22.6-9.5 3.2-.8 10.6-1.4 18-1.4 11.2 0 13.4.3 21.2 2.9 4.9 1.6 8.9 2.8 9.1 2.5C167.5 16.4 173.8 12 179 12c1.1 0 2-.5 2-1 0-.6 1.1-1 2.5-1s2.5.4 2.5 1zM99.1 185.8c21.3 11.1 20.9 45.1-.6 56.5-5.3 2.8-16.4 3-21.6.4-5.1-2.5-10.6-8.2-13.7-14.2-2.4-4.4-2.7-6.1-2.7-15 0-11.4 1.8-16.5 8.1-22.8 5.6-5.5 10.8-7.7 18.5-7.7 5.4 0 7.7.6 12 2.8z"/><path d="M97.7 77.8c-3.4 3.8-1.1 9.4 3.8 9.4 5 0 7.4-6.2 3.7-9.5-2.4-2.2-5.5-2.1-7.5.1zM155 78.4c-1.5 1.9-.9 5.6 1.1 6.9.9.5 2.8.7 4.2.3 4.8-1.2 3.2-8.6-1.9-8.6-1.2 0-2.7.7-3.4 1.4zM121.7 104c-4.2 1.3-5.7 2.9-5.7 6.4 0 6.2 7.6 13.6 14 13.6 3.5 0 8.8-3 11.1-6.1 2.7-3.8 3.4-8.9 1.6-11.3-2.2-2.9-14.7-4.5-21-2.6z"/></svg>