<?xml version="1.0" encoding="iso-8859-1"?>
<!-- Generator: Adobe Illustrator 19.0.0, SVG Export Plug-In . SVG Version: 6.00 Build 0)  -->
<svg version="1.1" id="Capa_1" xmlns="http://www.w3.org/2000/svg" xmlns:xlink="http://www.w3.org/1999/xlink" x="0px" y="0px"
	 viewBox="0 0 496 496" style="enable-background:new 0 0 496 496;" xml:space="preserve">
<path style="fill:#FFCB57;" d="M162.288,251.064c-2.088-4.144-3.904-8.448-5.384-12.912L120,232v-48l36.904-6.152
	c1.48-4.464,3.296-8.768,5.384-12.912l-21.768-30.472l33.944-33.944l30.472,21.768c4.144-2.088,8.448-3.904,12.912-5.384L224,80h48
	l6.152,36.904c4.464,1.48,8.768,3.296,12.912,5.384l30.472-21.768l33.944,33.944l-21.768,30.472
	c2.088,4.144,3.904,8.448,5.384,12.912L376,184v48l-36.904,6.152c-1.48,4.464-3.296,8.768-5.384,12.912l21.768,30.472
	l-33.944,33.944l-30.472-21.768c-4.144,2.088-8.448,3.912-12.912,5.384L272,336h-48l-6.152-36.904
	c-4.464-1.48-8.768-3.296-12.912-5.384l-30.472,21.768l-33.944-33.944L162.288,251.064z"/>
<g>
	<path style="fill:#E56565;" d="M248,496c-13.232,0-24-10.768-24-24s10.768-24,24-24s24,10.768,24,24S261.232,496,248,496z M248,464
		c-4.416,0-8,3.592-8,8s3.584,8,8,8c4.416,0,8-3.592,8-8S252.416,464,248,464z"/>
	<path style="fill:#E56565;" d="M472,496c-13.232,0-24-10.768-24-24s10.768-24,24-24s24,10.768,24,24S485.232,496,472,496z M472,464
		c-4.416,0-8,3.592-8,8s3.584,8,8,8s8-3.592,8-8S476.416,464,472,464z"/>
	<path style="fill:#E56565;" d="M24,496c-13.232,0-24-10.768-24-24s10.768-24,24-24s24,10.768,24,24S37.232,496,24,496z M24,464
		c-4.416,0-8,3.592-8,8s3.584,8,8,8s8-3.592,8-8S28.416,464,24,464z"/>
	<path style="fill:#E56565;" d="M24,416c-13.232,0-24-10.768-24-24s10.768-24,24-24s24,10.768,24,24S37.232,416,24,416z M24,384
		c-4.416,0-8,3.592-8,8s3.584,8,8,8s8-3.592,8-8S28.416,384,24,384z"/>
	<rect x="240" y="360" style="fill:#E56565;" width="16" height="72"/>
	<path style="fill:#E56565;" d="M112,480H64v-16h48c22.056,0,40-17.944,40-40v-96h16v96C168,454.88,142.872,480,112,480z"/>
	<path style="fill:#E56565;" d="M96,400H64v-16h32c4.416,0,8-3.592,8-8V256h16v120C120,389.232,109.232,400,96,400z"/>
	<path style="fill:#E56565;" d="M472,416c-13.232,0-24-10.768-24-24s10.768-24,24-24s24,10.768,24,24S485.232,416,472,416z M472,384
		c-4.416,0-8,3.592-8,8s3.584,8,8,8s8-3.592,8-8S476.416,384,472,384z"/>
	<path style="fill:#E56565;" d="M432,480h-48c-30.872,0-56-25.12-56-56v-96h16v96c0,22.056,17.944,40,40,40h48V480z"/>
	<path style="fill:#E56565;" d="M432,400h-32c-13.232,0-24-10.768-24-24V256h16v120c0,4.408,3.584,8,8,8h32V400z"/>
</g>
<g>
	<path style="fill:#3F3A34;" d="M248,136c-39.704,0-72,32.304-72,72s32.296,72,72,72s72-32.304,72-72S287.704,136,248,136z M240,208
		c0-4.408,3.584-8,8-8c4.416,0,8,3.592,8,8s-3.584,8-8,8S240,212.408,240,208z M256,263.36v-32.832c9.288-3.312,16-12.112,16-22.528
		c0-13.232-10.768-24-24-24s-24,10.768-24,24c0,10.416,6.712,19.216,16,22.528v32.832c-27.088-3.904-48-27.208-48-55.36
		c0-30.88,25.128-56,56-56s56,25.12,56,56C304,236.152,283.088,259.456,256,263.36z"/>
	<path style="fill:#3F3A34;" d="M340.856,161.336l-14.296,7.192c1.984,3.928,3.64,7.912,4.936,11.824l1.512,4.584l34.992,5.84
		v34.448l-34.984,5.832l-1.512,4.584c-1.288,3.904-2.952,7.888-4.936,11.832l-2.168,4.312l20.64,28.896l-24.36,24.352l-28.888-20.64
		l-4.32,2.176c-3.928,1.984-7.912,3.648-11.824,4.936l-4.584,1.512L265.216,328h-34.44l-5.832-34.984l-4.584-1.512
		c-3.904-1.288-7.888-2.952-11.824-4.936l-4.32-2.176l-28.888,20.64l-29.16-29.152l-11.312,11.312l38.736,38.736l32.168-22.976
		c1.656,0.744,3.312,1.44,4.976,2.08l6.48,38.968h61.552l6.496-38.96c1.664-0.648,3.32-1.336,4.976-2.08l32.168,22.976L365.92,282.4
		l-22.968-32.16c0.744-1.656,1.44-3.32,2.08-4.976L384,238.776v-61.552l-38.968-6.496
		C343.824,167.592,342.424,164.448,340.856,161.336z"/>
	<path style="fill:#3F3A34;" d="M112,177.224v61.552l38.968,6.496c1.208,3.136,2.608,6.272,4.168,9.384l14.296-7.184
		c-1.984-3.944-3.648-7.928-4.936-11.832l-1.512-4.584L128,225.224v-34.448l34.984-5.832l1.512-4.584
		c1.296-3.912,2.952-7.896,4.936-11.824l2.168-4.32l-20.64-28.896l24.36-24.352l28.888,20.64l4.32-2.176
		c3.928-1.984,7.912-3.648,11.824-4.936l4.584-1.512L230.784,88h34.44l5.832,34.984l4.584,1.512
		c3.904,1.288,7.888,2.952,11.824,4.936l4.32,2.176l28.888-20.64l29.152,29.152l11.312-11.312l-38.728-38.736L290.24,113.04
		c-1.656-0.744-3.312-1.44-4.976-2.08L278.776,72h-61.552l-6.488,38.96c-1.664,0.648-3.32,1.336-4.976,2.08l-32.168-22.976
		L130.064,133.6l22.976,32.16c-0.736,1.656-1.432,3.312-2.072,4.968L112,177.224z"/>
	<rect x="240" y="104" style="fill:#3F3A34;" width="16" height="16"/>
	
		<rect x="172.115" y="132.116" transform="matrix(-0.7071 0.7071 -0.7071 -0.7071 406.553 111.8322)" style="fill:#3F3A34;" width="16" height="16"/>
	<rect x="144" y="200" style="fill:#3F3A34;" width="16" height="16"/>
	
		<rect x="172.111" y="267.872" transform="matrix(-0.7071 0.7071 -0.7071 -0.7071 502.5399 343.585)" style="fill:#3F3A34;" width="16" height="16"/>
	<rect x="240" y="296" style="fill:#3F3A34;" width="16" height="16"/>
	
		<rect x="307.875" y="267.876" transform="matrix(-0.7071 0.7071 -0.7071 -0.7071 734.3063 247.5924)" style="fill:#3F3A34;" width="16" height="16"/>
	<rect x="336" y="200" style="fill:#3F3A34;" width="16" height="16"/>
	
		<rect x="307.879" y="132.12" transform="matrix(-0.7071 0.7071 -0.7071 -0.7071 638.3194 15.8396)" style="fill:#3F3A34;" width="16" height="16"/>
	<path style="fill:#3F3A34;" d="M432,112c-2.832,0-5.616,0.248-8.376,0.608C419.912,76.368,389.208,48,352,48
		c-8.16,0-16.16,1.44-23.704,4.08C314.272,20.576,283.192,0,248,0c-35.2,0-66.272,20.568-80.296,52.072
		C160.144,49.432,152.152,48,144,48c-37.184,0-67.864,28.336-71.608,64.536C69.632,112.184,66.832,112,64,112
		c-35.288,0-64,28.712-64,64s28.712,64,64,64h32v-16H64c-26.472,0-48-21.528-48-48s21.528-48,48-48c17,0,32.392,8.712,41.168,23.304
		l13.704-8.248c-7.32-12.176-18.104-21.272-30.704-26.376C89.904,87.344,114.248,64,144,64c13.656,0,26.808,4.968,37.016,13.984
		l10.592-12c-2.968-2.624-6.16-4.936-9.472-7.008C193.52,32.992,219.056,16,248,16c28.96,0,54.504,17.016,65.88,43.016
		c-5.848,3.656-11.24,8.096-15.888,13.368l12,10.584C320.624,70.912,335.936,64,352,64c29.768,0,54.112,23.368,55.832,52.712
		c-7.6,3.096-14.592,7.672-20.624,13.568l11.2,11.432C407.44,132.872,419.368,128,432,128c26.472,0,48,21.528,48,48
		s-21.528,48-48,48h-32v16h32c35.288,0,64-28.712,64-64S467.288,112,432,112z"/>
</g>
<g>
</g>
<g>
</g>
<g>
</g>
<g>
</g>
<g>
</g>
<g>
</g>
<g>
</g>
<g>
</g>
<g>
</g>
<g>
</g>
<g>
</g>
<g>
</g>
<g>
</g>
<g>
</g>
<g>
</g>
</svg>
