<svg version="1" xmlns="http://www.w3.org/2000/svg" width="346.667" height="346.667" viewBox="0 0 260.000000 260.000000"><path d="M188.5 92.3c-8.3 3.3-12.8 7.2-16.7 14.7-1.9 3.8-2.3 5.9-2.2 13.7v9.3l-19.8.2-19.8.3 65 65 65 65V130h-36.6l.4-8.4c.4-7.4.1-9.1-2-13.8-1.4-3-4.2-7.1-6.3-9.1-6.7-6.5-19.2-9.4-27-6.4zM0 194.5V260h129v-35.7l5.2 1c13.3 2.6 27.5-5.1 32.3-17.6 2.7-7.2 1.8-18-2-24.3-6.7-10.7-18.1-15.5-31.2-13.1l-4.3.7-.2-20.7-.3-20.8H108c-19.9 0-20.5.1-20.2 2 .2 1.1.4 5.1.5 9 .3 16.1-10.9 27.6-26.9 27.6-10.6 0-19.7-5.4-24.7-14.6-1.9-3.4-2.2-5.6-2.2-14.3l.1-10.2H0v65.5z"/></svg>