<svg version="1" xmlns="http://www.w3.org/2000/svg" width="346.667" height="346.667" viewBox="0 0 260.000000 260.000000"><path d="M0 130v130h260V0H0v130zm141.8-58c5.6 1.1 13.7 3.3 17.8 4.8l7.6 2.8 3 7.4c3.4 8.6 4.6 10.3 6.5 9.6.9-.4 1.3.4 1.3 2.9v3.5h-6.5c-6.3 0-6.5.1-6.5 2.5s.2 2.5 7 2.5h7v3.4c0 11.7-6.2 29-14.2 39.3l-4 5.3 5.1 6.9c2.8 3.7 5.1 7.5 5 8.2-.1 2.8-20.3 31.4-22.4 31.7-1.3.2-5.3-2.5-11.3-7.3l-9.2-7.6-9.3 7.6c-5.7 4.6-9.9 7.4-11.1 7.3-2.2-.3-22.5-29.1-22.6-31.9 0-.9 2.3-4.6 5-8.2l5.1-6.7-4.2-5.2c-7.9-9.9-13.9-26-13.9-37.5v-5.2l6.8-.3c6.1-.3 6.7-.5 7-2.6.3-1.9-.1-2.2-3.3-2.2-1.9 0-3.8-.6-4-1.3-.3-.6 1.7-8 4.3-16.2l4.8-15 4.5-.7c8.4-1.2 34 0 44.7 2.2zM75.3 178.7c5.4 7.8 17.1 21.7 21.8 25.7 7.5 6.4 17.1 12.3 24 14.7l6.6 2.3 6.2-1.9c12.7-3.8 31-18.8 42.1-34.5 2.5-3.4 5.4-7.4 6.6-8.8l2.1-2.6 10.2 1.7c9.5 1.6 18.1 4.7 18.1 6.5 0 .4-3.3 4-7.4 8.1-11.1 11-12 13.4-12.4 31.8l-.3 15.3H63.2l-.4-15.3c-.4-18.2-1.2-20.2-12.4-31.8-4.1-4.1-7.4-7.8-7.4-8.2 0-2.2 17.3-7.3 25.8-7.6 2.8-.1 3.7.6 6.5 4.6zm147.5 14.8c2.5 4.7 2.7 5.9 3 21.6l.4 16.6-3.2 2.6c-3 2.6-3.7 2.7-13.7 2.7h-10.6l.5-13.8c.3-9.6 1-14.8 2.1-17.6 2.3-5.2 16.8-20.1 17.9-18.4.5.7 2.1 3.5 3.6 6.3zm-177.6.2c9.5 9.6 11 13.6 11.6 30l.5 13.3H46.9c-11.6 0-13.6-.8-16.3-6.2-1.8-3.6-2.3-24.2-.6-25.3.6-.3 1-1.8 1-3.3.1-4.8 4.7-15.2 6.8-15.2.4 0 3.8 3 7.4 6.7z"/><path d="M124.7 99.7c-1.1.3-1.6 1.1-1.3 2 .3.8.6 2 .6 2.7 0 .7 1.3 1 3.9.8 3-.3 4.1-.9 4.5-2.5.3-1.2.4-2.2.2-2.4-.6-.6-6.2-1.1-7.9-.6z"/></svg>