<svg version="1" xmlns="http://www.w3.org/2000/svg" width="346.667" height="346.667" viewBox="0 0 260.000000 260.000000"><path d="M0 130v130h260V0H0v130zM137.8 20.9c5.8 2.9 12 10.4 16.2 19.4 3.2 6.8 5 12.4 9.6 29.4.2.8 1.9.6 6-.7 4.3-1.3 6-2.3 6.6-4.1 1.5-3.9 5.9-7.8 9.6-8.5 4.6-.9 10.6 1.1 13.2 4.3 1.7 2.2 3.2 2.8 8.6 3.5 25.6 3 24.1 25.8-3.4 53.5l-8.5 8.5 9.1 9.1c22.8 23.2 27.6 42 12.7 49.7-9.1 4.6-30.4 3.7-47.4-2.1-5.7-2-7.1-1.8-7.1 1 0 3.5-5.3 19.9-9 27.8-3.9 8.4-10.3 16.4-15.1 18.9-3.6 1.8-10.2 1.8-13.7 0-1.5-.8-4-2.8-5.6-4.5-2.3-2.4-3.8-3.1-6.9-3.1-12.1 0-19-13.9-11.1-22.5l2.6-2.8-1.7-7.1c-.9-3.9-1.8-7.6-2-8.3-.3-.8-3.7-.2-11.2 1.9-9.5 2.7-12.5 3.1-24.3 3.2-12.3.1-13.9-.1-18.3-2.3-6-2.9-8.7-7-8.7-13.3 0-9.9 7.8-23.3 21.7-37.5l8.5-8.7-5.8-5.1c-4.5-4.1-6.3-5-8.5-4.7-4.1.6-9.5-1.5-12.4-4.9-2.8-3.4-3.4-9.8-1.3-14.3.9-2.1.8-3.6-.5-7.7-3.5-10.7-1.4-17.9 6.5-22.1 3.9-2.1 5.6-2.3 18.3-2.3 12 0 15.3.4 23.5 2.7 5.2 1.4 10.1 2.8 10.8 3 .9.2 2.1-2.6 3.7-8.8 5.4-21 13.6-35.2 23.5-40.5 4.5-2.3 7.2-2.4 11.8 0z"/><path d="M125.4 29.2c-4.7 4.1-7.7 8.9-11.4 18.2-3.2 8-7.3 23.2-6.8 24.8.5 1.5 21.9 11.1 24.8 11.1 2.3 0 22.3-8.5 24.4-10.4 1.4-1.3-4.3-21-8.9-30.5-2.8-5.9-5.8-10.3-8.4-12.7-5.3-4.7-8.7-4.9-13.7-.5zM53.5 70.9c-7 1.8-10.3 6.3-9 12.3 1.3 5.7 2.2 6.8 5.4 6.2 9.8-2 18.7 9.3 14.5 18.3l-1.7 3.4 4.9 5c2.6 2.7 5.2 4.9 5.6 4.9.4 0 5.7-3.6 11.7-8.1l11-8 .6-6.7c.3-3.7 1-9.6 1.5-13.2.6-3.8.6-6.8 0-7.4-.5-.5-5.9-2.2-12.2-3.8-11.7-3-26.8-4.4-32.3-2.9zM201.1 73.9c-2.3 7.7-13.1 11.1-20 6.2-1.7-1.2-3.5-3.1-4.1-4.1-.9-1.7-1.3-1.7-5.7-.4-2.6.8-5 1.8-5.4 2.2-.4.4-.1 5.9.7 12.2.7 6.3 1.3 12.2 1.4 13.1 0 .9 4.9 5.3 11 9.8 9.1 6.7 11.4 7.9 12.9 7.1 1.1-.5 5.7-5 10.2-9.9 19.8-21.2 22.8-35.8 8.2-39.2-6.9-1.6-7.9-1.3-9.2 3zM105.6 80.8c-.7 1.2-2.9 18.3-2.3 18.8.2.2 4.9-2.2 10.5-5.3 5.6-3.2 9.8-6.1 9.3-6.6-1.5-1.5-17-7.6-17.5-6.9zM155 81.3c-1.4.6-5.4 2.4-9 3.9l-6.4 2.9 10.3 6c5.6 3.3 10.5 5.8 10.7 5.6.7-.6-1.6-18-2.5-18.8-.3-.4-1.7-.2-3.1.4zM124 96.1c-4.1 2.2-10.8 6.1-14.7 8.5l-7.3 4.5v33.7l6.3 4c3.4 2.2 10.1 6 14.9 8.6l8.7 4.7 5.8-3c3.2-1.6 9.9-5.4 14.8-8.4l9-5.4.3-15.4c.1-8.5 0-16.3-.2-17.4-.3-1.2-4.2-4.3-9.8-7.7-8-4.8-19.1-10.8-20-10.8-.2 0-3.7 1.9-7.8 4.1zm15.7 11c4.9 1.8 10.3 7.9 11.9 13.6 1.4 4.8 1.4 5.8 0 10.6-1 3.5-2.8 6.4-5.3 8.9-4.6 4.5-7.9 5.8-14.3 5.8s-9.7-1.3-14.3-5.8c-2.5-2.5-4.3-5.4-5.3-8.9-1.4-4.8-1.4-5.8 0-10.6 1.6-5.5 6.9-11.7 11.6-13.6 3.4-1.3 12.2-1.3 15.7 0zM87.2 119.6c-4 3-7.2 5.9-7.2 6.4 0 1 12.4 10.6 14.5 11.2 1.1.3 1.6-22 .6-22.7-.4-.2-3.9 2.1-7.9 5.1zM168.9 114.4c-.6.6-.3 22.6.3 22.9.8.4 14.8-10.2 14.8-11.2 0-.8-2.9-3.2-13.6-11.3-.6-.4-1.3-.6-1.5-.4zM68.3 135.2c-12.3 11.3-22.5 26.1-23.9 34.5-.5 3.5-.2 4.4 2.2 7.2 5.8 6.4 21.4 6.4 43.9-.1 7.3-2.1 8-2.5 7.8-4.8 0-1.4-.6-7.5-1.2-13.5-1.1-10.1-1.4-11.2-3.9-13.2C88.9 141.7 74 131 73.5 131c-.3 0-2.6 1.9-5.2 4.2zM181.5 137.1c-14.7 11.1-13.2 8.7-14.9 23.4-.8 7.1-1.1 13.3-.7 13.8 1.3 1.3 23.3 6.5 30.7 7.2 9.1.9 17.3-.7 20.5-4.1 4.7-5 2.1-14.5-7.2-26.5-5.3-6.9-18-19.9-19.4-19.9-.5.1-4.6 2.8-9 6.1zM103.3 156.2c.3 2.4.9 6.7 1.2 9.5.4 3.3 1.2 5.3 2 5.3 1.5 0 15.7-5.8 16.7-6.8.7-.7-18.2-12.2-19.8-12.2-.4 0-.4 1.9-.1 4.2zM149.8 157.8c-5.4 3.1-9.4 5.9-9 6.3 1.1 1.1 15.3 6.9 16.7 6.9.8 0 1.5-2 1.9-5.3.4-2.8.9-7.1 1.2-9.5.4-2.3.2-4.2-.2-4.1-.5 0-5.3 2.6-10.6 5.7zM120 173c-5.8 2.7-11.1 4.9-11.7 4.9-1.7.1-1.6 1.2.4 9.9 1.5 6.4 2 7.3 4.2 7.8 5.1 1 9.3 3.8 11.2 7.6 2.4 4.7 2.4 7.4-.1 12.3l-2 3.9 3 3.1c2.3 2.3 3.9 3 7 3 5.5 0 10-4.7 15.5-16 4-8.1 10.7-29.9 9.5-30.7-1.5-1.1-22.8-10.1-24.5-10.4-1.1-.1-6.7 1.9-12.5 4.6z"/></svg>