<svg version="1" xmlns="http://www.w3.org/2000/svg" width="346.667" height="346.667" viewBox="0 0 260.000000 260.000000"><path d="M0 130v130h260V0H0v130zm240.8-91.3L241 63h-40.3l-4.1 4.5c-2.3 2.5-4.7 4.5-5.3 4.5-.6 0-1.8-1.2-2.8-2.6-3.8-5.8-5-6.4-13-6.4H168v-9.4c0-7.1-.4-9.7-1.5-10.6-.8-.7-1.5-2.8-1.5-4.7 0-1.9.7-4.1 1.5-4.9 1.1-1.1 1.5-3.8 1.5-9.8 0-4.5.3-8.6.7-8.9.4-.4 16.7-.6 36.2-.5l35.6.3.3 24.2zm-138.3 4.8c12.8 3.4 24.2 12.8 30 24.9 4.2 9 5.3 13.1 3 12.2-3-1.1-5.5 1.2-5.5 5.1v3.6l-7.5-.7c-4.1-.4-9.6-1.3-12.2-2.1-6.5-2-8.4-1.9-9 .5-.3 1.3-1.4 2-2.9 2-3.8 0-12.6-2.1-17.6-4.2-5.3-2.3-7.8-1.4-7.8 2.5 0 1.8-.4 1.9-6 1.3-5.9-.7-11.3-2.1-17.7-4.7-2.6-1-3.4-1-4.7 0-2.2 1.9-2 3.8.8 6.4 1.7 1.6 2.5 3.6 2.7 6.7.4 4.4.3 4.5-2.8 4.8l-3.1.3-.8-6.8c-1.9-18.2 7.8-37.9 23.4-47 10.3-6.1 25.4-8 37.7-4.8zm60.8 24c3.3 3.3 3.9 3.5 10.3 3.5 6.6 0 6.8.1 10.1 3.9 5.5 6.5 10.8 6.4 16.5-.3l2.7-3.1 4.5 4.4c5.3 5.2 10 14.3 11.6 22.6 1.4 7.2 1 13.7-.8 14.3-1.1.3-1.2-.6-.6-4.4.6-3.9.4-4.9-1.1-6-3-2.2-5.2-.1-6 5.8-1.1 9-1.2 9.1-5.7 8.4-10.1-1.6-20.9-9.2-26-18.2-1.6-2.9-3.5-5.5-4.3-5.8-.8-.3-3.7 1-6.5 2.9-5.8 3.9-11.3 5.7-18.4 5.9l-4.8.1.1-10.5c.1-5.8-.3-11.9-.8-13.7-.9-3-.7-3.5 2.7-6.4 3.1-2.7 10.4-6.8 12.4-6.9.3 0 2.2 1.6 4.1 3.5zM98.9 95.9c3.5.1 6-.4 7.1-1.4 1.3-1.1 2.4-1.3 5.1-.5 1.8.6 4.4 1 5.6 1 1.2 0 3.2.4 4.6.9l2.4.9-2.4 18.7c-2.6 20.6-4.2 25.4-10.5 31.7-6.5 6.5-11 8.3-21.3 8.3-8.1 0-9.5-.3-14.4-3-2.9-1.6-6.6-4.5-8.2-6.4-5.4-6.6-6.7-11-9.4-31.7-1.3-10.9-2.3-19.9-2.1-20.2.2-.2 3 .1 6.2.7 8.9 1.7 14.8 1.4 16.7-.7 1.6-1.8 1.9-1.8 8.4-.1 3.8 1 9.2 1.8 12.2 1.8zm38.3 1.8c-.4 4.1-.5 4.3-3.8 4.3-1.9 0-3.4-.4-3.4-.9 0-2 1.3-4.1 2.5-4.1.6 0 2-.9 3-2s1.9-1.9 2-1.8c.1.2 0 2.2-.3 4.5zm39 9.2c4.3 5.7 13.7 12.2 21 14.6 2.9 1 5.6 2.1 6.1 2.4 1.1 1.1-1.3 17.1-3.3 21.7-6 14-22.8 20.6-36.5 14.5-10.4-4.6-15.1-11.7-17-25.7-1-6.8-1.1-10.3-.3-12.5 1-2.8.8-5.1-.8-10.5-.5-2 0-2.2 7.2-3.3 4.3-.6 10.1-2.2 12.8-3.5 2.8-1.4 5.6-2.5 6.1-2.5.6-.1 2.7 2.1 4.7 4.8zm-124.8 9.8c1 8.5.5 10.3-2.9 10.3-5.7 0-9.4-3.6-9.5-9.3 0-5 3.9-8.9 8.4-8.5 3 .3 3.1.4 4 7.5zm86-5.2c3.9 3.6 3.7 9.4-.5 12.9-3.1 2.6-6.3 3.3-8.8 1.7-1-.7-1.2-2.5-.6-8.2.4-4.1.9-7.7 1.2-8.2 1-1.6 6.1-.6 8.7 1.8zm81.8 10.2c2.5 2.9 2.9 5.2 1.4 8.7-1.6 3.8-5.8 5.8-9.3 4.5-2.1-.7-2.2-1.3-1.6-5.6.3-2.6 1-5 1.6-5.2.5-.2 1.7-1.2 2.5-2.2 2-2.4 3.5-2.4 5.4-.2zm-79.4 11.5c-.5 1.5-7.8 2.4-7.8.9 0-.8 1.9-1.4 6.8-2 .8 0 1.2.5 1 1.1zm1.2 10c0 .7 1.1 3.6 2.4 6.5 2.8 6 8.9 12.4 14.6 15.3 4.9 2.5 5.6 6 1.3 6-1.6 0-5.9 1.1-9.8 2.4l-7 2.4-3.6-2.8-3.6-2.9-1.1-12.3c-1.7-17-1.9-15.8 2.8-15.8 2.5 0 4 .5 4 1.2zm75 3.2c0 2.7.6 4.8 1.5 5.6 2 1.7 1.1 6.7-1.6 9.3-1.3 1.2-1.9 3.2-1.9 6 0 4.8-1.8 12-2.8 11.5-.4-.2-3.3-1.6-6.4-3.1-3.1-1.6-8.4-3.4-11.7-4-7.5-1.4-8.2-3.6-2.1-6.7 5.7-2.9 11.8-9.3 14.6-15.3 1.3-2.9 2.4-5.8 2.4-6.5 0-.7 1.5-1.2 4-1.2h4v4.4zM95.8 168.1c.4 6.8-1 10.6-4.2 12.1-2 .9-3 .8-5.1-.6-2.3-1.5-2.5-2.2-2.5-9.4v-7.7l5.7.1 5.8.1.3 5.4zm84.2 7.3c0 7.1-1.4 9.6-5.5 9.6s-5.5-2.5-5.5-9.6V169h11v6.4zM65.8 204.7L66 237h-9l-.2-17.8-.3-17.7h-5l-.3 17.8L51 237H35v-21.5c0-18.7.3-22.3 2-27.4 1-3.1 1.7-6.6 1.4-7.7-.7-2.8 2.7-5.5 7.3-5.9 2.1-.2 5.4-.8 7.3-1.3 1.9-.6 5.5-1 8-.9l4.5.2.3 32.2zM77.4 176c.4 2.3 1.8 5.4 3.5 7.2 2.7 3 3.5 3.3 8.6 3.3s5.9-.3 8.6-3.3c1.7-1.9 3.1-4.9 3.5-7.3.6-3.3 1-4 2.8-3.7 2.1.3 2.1.5 2.1 32.8v32.5l-16.7.3-16.8.2v-33c0-31.6.1-33 1.9-33 1.4 0 2 1 2.5 4zm51.2-1.2c2.2 1.1 5.3 3.5 7.1 5.4 5.9 6.1 6.3 8.3 6.3 34.3v23.6l-7.2-.3-7.3-.3-.5-18c-.5-16.8-.6-18-2.4-18.3-3.9-.8-4.6 2.2-4.6 19.5V237h-7v-31.8c0-17.5.3-32.2.8-32.6 1.2-1.3 10.7.1 14.8 2.2zm34.3 7.6c.7 2.9 2.2 5.4 4.3 7.1 2.8 2.3 3.9 2.7 8 2.3 6-.6 9.5-3.6 11.1-9.5.6-2.4 1.5-4.3 1.9-4.3.4 0 .8 6.9.8 15.3v15.2l-6.2 2.4c-7.8 2.9-8.8 2.9-16.5 0l-6.3-2.4v-15.2c0-8.4.4-15.3.9-15.3s1.4 2 2 4.4zm-9.9 12.2c0 12.5-.1 13.4-1.9 13.4-1.7 0-2-1-2.4-10.8-.2-5.9-.7-11.6-1.1-12.8-.6-1.5-.2-2.3 1.6-3.1 1.3-.6 2.6-.9 3.1-.6.4.2.7 6.5.7 13.9zm56.1-6.5c2.3 2.3 5.3 6.6 6.8 9.8 2.4 5.2 2.6 6.7 2.9 22.3l.4 16.8H211v-15.3c0-10.6-.4-15.7-1.2-16.5-2-2-4.8-1.4-6 1.3-1.1 2.5-2.4 3-5.2 1.9-1.4-.5-1.6-2.8-1.6-14.5V180l4 2c2.3 1.2 5.9 3.9 8.1 6.1zM168.5 219l6 3 5.7-2.9c6.3-3.2 14.7-4.7 20.3-3.7l3.5.7V238h-55V214.7l6.8.6c4.5.5 8.7 1.6 12.7 3.7z"/><path d="M214.8 25.1c-2.1 1.1-3.8 2.6-3.8 3.3 0 2.5 1.2 4.6 2.6 4.6 2 0 2 11.8-.1 12.6-2 .8-2.9 4.2-1.5 5.9 1.5 1.8 12.1 2 13.8.3 1.8-1.8 1.4-4.6-.8-5.8-1.8-1-2-2.1-2-10.5 0-7.2-.4-9.7-1.6-10.9-1.9-2-2-2-6.6.5zM192.8 30.8c-.7 1.7-2.3 3.3-4 4-4.3 1.6-3.3 7.2 1.3 7.2 1 0 1.9.9 2.1 2.1.2 1.2 1.1 2.7 2.1 3.3 2.2 1.4 5.1-.3 5.5-3.3.2-1.2 1.1-2.1 2.1-2.1 4.7 0 5.6-5.6 1.1-7.3-1.6-.6-3-1.8-3-2.7 0-4.5-5.7-5.4-7.2-1.2zM69.1 113.4c-2.1 2.5-1 6.1 1.9 6.1 2.2 0 2.5-.4 2.5-3.5 0-3.8-2.3-5.2-4.4-2.6zM105.4 113.4c-1.1 2.9.1 6.1 2.3 6.4 1.7.3 2.4-.3 2.9-2.2 1-4.2-3.8-8-5.2-4.2zM75.7 128.1c-.8 2.9 4.1 7.5 9.6 9 5.2 1.4 11.6-.3 15.8-4.2 3.2-3 3.4-4.6.7-6.3-1.2-.7-2.4-.3-4.8 1.7-4.3 3.7-10.6 3.7-14.8.2-3.7-3.1-5.8-3.2-6.5-.4zM155.7 122.7c-1.2 1.1-.8 6.1.6 6.6 1.9.7 4.7-1.2 4.7-3.1 0-3.1-3.5-5.4-5.3-3.5zM188.4 124.6c-.8 3 1.4 5.8 3.8 4.9 2.2-.9 2.7-2.5 1.7-5.3-1.2-3.1-4.7-2.9-5.5.4zM162.2 135.2c-1.8 1.8-1.5 3.2 1.6 6.2 5.8 5.5 15.5 5.4 21.5-.2 3.2-3 3.4-4.7.8-6.2-1.6-.8-2.5-.5-4.8 1.4-1.5 1.3-3.8 2.6-4.9 3-2.6.8-7.2-.9-9.7-3.5-2.1-2.2-2.9-2.3-4.5-.7z"/></svg>