<svg version="1" xmlns="http://www.w3.org/2000/svg" width="346.667" height="346.667" viewBox="0 0 260.000000 260.000000"><path d="M61.4 17.1l-3.2.9L62 32.7l3.7 14.8 3.3-.3c1.9-.1 3.5-.4 3.7-.6.5-.5-7.1-30.6-7.7-30.5-.3 0-1.9.5-3.6 1zM173.3 18.2c-.6.7-1.6 4.9-2.2 9.2-1.9 13.3-4.4 13.9-12.5 3.1-3.1-4.1-6.2-7.5-6.9-7.5-.6 0-3.8 2-6.9 4.4l-5.7 4.3-10.8.6c-12.2.6-21.3 3.1-31.3 8.3-12.8 6.7-24.4 18.5-30.8 31.6-3.4 6.9-7.2 20.1-7.2 25 0 1.7-.5 2.8-1.4 2.8-2.2 0-3.5 2.4-4.8 8.6-.6 3.2-1.3 6.1-1.4 6.3-.2.2-2.8-1.2-5.9-3.2-3-2.1-6.2-3.7-7.1-3.7C36 108 24 120 24 122.4c0 1.2 1.6 4.5 3.6 7.4 2 3 3.4 5.5 3.2 5.6-.2.1-3 .8-6.3 1.5s-6.6 1.8-7.2 2.3c-.9.7-1.3 4.1-1.3 10.4 0 10.6-.3 10.3 9.3 12.3 3.1.7 5.7 1.4 5.7 1.7 0 .2-1.6 2.6-3.5 5.3-1.9 2.6-3.5 5.7-3.5 6.7 0 2 12.7 15.4 14.5 15.4.6 0 3.4-1.6 6.2-3.5 2.9-1.9 5.6-3.5 6.1-3.5s1.5 3 2.3 6.7l1.4 6.8 10.2.3c11.7.3 11.3.6 13.3-9.1l1.1-5.7 5.8 4c3.1 2.2 6.2 4 6.9 4 .6 0 2.7-1.4 4.7-3.1l3.5-3.1v5.4c0 7.2 1.4 11.6 4.9 15.2 2.9 3.1 3 3.3 3.3 16.1.3 14.3 1.1 16.4 7.3 20.2 4.5 2.7 25.6 2.6 30.2-.1 5.8-3.6 7.3-7.8 7.3-21.3v-12l3.4-3.6c4-4.2 4.6-6.9 4.6-19.4 0-11.5 1.2-14.8 7.5-19.9 2.6-2.1 6-4.9 7.4-6.1l2.6-2.2-2.6-2.6-2.5-2.6-6.6 5c-11.3 8.6-13.8 14.1-13.8 30.6 0 14.8.5 14.5-22.6 14.5-23 0-22.1.7-22.6-16.5-.4-15.3-2.3-19.6-11.9-27-21.8-16.8-31-35-29.6-58.4.9-16.8 6.6-29.2 19.1-41.6 9-9 18.3-14.3 29.6-16.9 9.4-2.3 13.7-2.1 15.1.6.6 1.2 3.1 4.8 5.5 8.1 4.7 6.4 5.2 7.8 3 9.6-1 .9-3.6.9-10.5 0-6.4-.9-9.5-.9-10.2-.2-.6.6-1.9 6.6-2.9 13.4-2.2 15.1-2.2 15.1 9.5 16.7 8 1.1 11 2.8 9.8 5.8-.3.7-3.6 3.7-7.4 6.5-4.8 3.6-6.9 5.7-6.9 7.2 0 3.2 14 21.1 16.7 21.5 1.4.2 4.6-1.5 8.9-4.7 7.2-5.5 8.5-5.9 10.4-3.6 1 1.3 1.1 3.3.1 10.2-1 7.2-1 8.8.2 10 1.6 1.6 19.4 4.5 24.7 4.1l3.5-.3 1.6-9.3c1.4-8.5 2.6-11.1 5.2-11.2.8 0 2.6 2 8.6 9.7 2.3 2.9 4.9 5.3 5.8 5.3 1.9 0 21-13.9 21.8-15.9.3-.8-1.1-3.8-3.2-6.8-7.2-10.1-7.7-11.2-6.2-12.9 1.1-1.4 2.6-1.5 8.3-1 3.8.4 7.9.9 9.1 1.2 3.9 1 5.1-1.7 6.9-14.7 1.4-10.4 1.4-12.5.2-13.7-.7-.7-4.9-1.8-9.2-2.4-12.7-1.8-13.6-4.2-4.1-11.4 6.1-4.6 8.7-7.1 8.7-8.4 0-1.6-16.2-22-17.4-22-.7 0-4.4 2.2-8.2 5-6.6 4.8-10.6 6.1-11.9 4-.4-.6-.1-5.1.6-10.1 1-7.6 1-9.2-.2-10.4-.8-.7-6.6-2-12.9-2.9-13.7-1.9-13.5-1.9-14.7-.4zm16.4 8.3l4.2.7-.6 8.7-.6 8.7 3.8 3.3c3.4 2.9 4.3 3.3 8 2.8 3-.3 5.9-1.7 9.6-4.5l5.3-4 4.5 6 4.5 6.1-3.4 2.6c-11 8.3-12.8 14.5-6.1 21.2 2.2 2.2 4.1 2.9 8.8 3.4 3.3.4 6.5 1 7.1 1.4 1.3.8-.9 14.7-2.3 14.4-.6 0-3.9-.4-7.5-.8-5.8-.6-6.9-.4-10 1.7-3.8 2.6-5.8 7.6-4.7 12 .4 1.3 2.3 4.6 4.2 7.2 2 2.5 3.5 5.1 3.3 5.6-.2.5-2.8 2.7-5.8 5l-5.5 4.1-1.9-2.8c-1.1-1.5-3.7-4.5-5.7-6.6-2.9-3-4.4-3.7-7.4-3.7-4.6 0-9.1 2.6-10.5 6-.6 1.4-1.4 4.9-1.9 7.8-.4 2.9-1.1 5.5-1.3 5.8-.7.6-12.2-.6-13.6-1.5-.6-.4-.6-2.7 0-7 1.1-7.5-.3-11.8-4.8-14.8-4.5-2.9-8.7-2.2-15.5 2.6-3.3 2.4-6.4 3.9-6.8 3.5-1.5-1.8-6.8-8.9-7.5-10.1-.4-.7 1.4-2.7 4.7-5.2 7.7-5.8 9.5-10.8 6.1-17.2-1.8-3.5-5.7-5.4-13.3-6.4l-5.4-.7.7-6.6c.4-3.6.9-6.9 1.2-7.3.2-.4 4.2-.5 8.7-.2l8.3.6 3.2-3.2c2.5-2.6 3.2-4.1 3.2-7.2 0-4.5-.9-6.7-5.1-12-1.6-2-2.9-3.9-2.9-4.3 0-.3 2.5-2.4 5.6-4.8l5.6-4.2 5.6 6.3c6.7 7.3 10.5 8.6 16 5.1 3.8-2.3 5.7-6.2 6.7-13.8.7-5.4.7-5.4 3.9-4.9 1.7.3 5 .9 7.3 1.2zM62 126.1c0 .3-1.7 1.1-3.7 1.7-9 2.7-15.5 11.5-15.6 21.2-.1 12.9 9.8 22.8 22.8 22.9 5.4.1 13.5-3.8 17.2-8.3l3-3.7 5.4 4.3c3 2.4 6.1 5.6 6.9 7.1 1.5 2.6 1.4 2.8-2.6 6.8l-4.2 4.1-4.8-3.2c-8.5-5.9-13.5-3.9-15.5 6.2l-1.2 5.9-4.5-.3c-4.5-.3-4.6-.4-5.4-4.3-1.4-6.9-2.8-9.3-6.1-10.5-2.8-.9-3.7-.7-8.7 2.4l-5.5 3.5-3.4-3.4-3.4-3.3 3.1-5c1.8-2.7 3.2-6 3.2-7.4 0-3.5-3.7-6.6-9.8-7.9l-5.3-1.1.3-4.6.3-4.6 5.5-1.2c9.3-2.1 11.1-6.6 6-14.7-1.6-2.6-3-5.1-3-5.5 0-.5 1.4-2.1 3-3.7 3-2.9 3.1-2.9 5.8-1.2 8.8 5.7 13 5.9 16 .7l1.7-2.9 1.2 4.7c.7 2.6 1.3 5 1.3 5.3zm7.2 14.9c2.2 3.6 5.4 8 7.1 9.8 3 3.1 3.1 3.4 1.7 6-5.1 8.9-18.9 9.7-24.9 1.4-4.2-5.9-3.9-12.9.6-18.3 2.8-3.3 7.8-6 10.2-5.6.8.1 3.2 3.1 5.3 6.7zm76.6 72.7l.3 3.3H115v-7.1l15.3.3 15.2.3.3 3.2zm-.5 15.3c-.3 5.8-2.8 7-14.8 7-11.9 0-14.2-1.1-15.2-7.3l-.6-3.8 15.4.3 15.4.3-.2 3.5z"/><path d="M170.5 53.3c-6.5 2.2-9.9 4.3-13.8 8.6-4.7 5.2-6.3 8.4-7.5 15.1-3.4 18.2 10.5 34.9 28.9 35 8.7 0 14.8-2.2 20.8-7.6 6.6-6 9.5-12.6 9.5-22.4 0-8.7-2.3-14.4-8.4-20.7-7.4-7.7-20.1-11.1-29.5-8zm20.3 10.1c8.4 5.8 12.3 16.8 9.2 26.1-2.1 6.2-8.4 12.3-14.8 14.1-25.9 7.5-41-28.4-17.2-40.9 4.8-2.5 6.4-2.8 12.1-2.5 5.3.3 7.5.9 10.7 3.2zM28.8 38.8c-.8.9-1.8 2.2-2.1 2.8-.4.7 4.8 5 12.3 10.4l13 9.2 2-2.4c1.1-1.2 1.9-2.6 2-2.9 0-.3-3.7-3.2-8.2-6.4-4.6-3.3-10.4-7.4-12.9-9.2-4.3-3.1-4.7-3.2-6.1-1.5zM94.8 64.9c-13.6 12.5-19.7 32.4-15.7 51.3 1.2 5.7 5.3 14.4 9.1 19.4 4.1 5.5 14.1 13.5 20.3 16.3 10.5 4.8 16.3 11.4 17.9 20.3.6 3.6.9 3.8 4.3 3.8h3.6l-.6-4.9c-1.3-10.9-8-19.1-20.5-25.2C82 130.7 75.5 94.7 99.7 71.3c6.4-6.2 6.4-6.2 4.7-8.8-.9-1.4-2.2-2.5-2.9-2.5-.8 0-3.7 2.2-6.7 4.9zM33.7 77.7l-13.8 3.6.7 3.1c.3 1.7.8 3.2.9 3.4.3.3 28.8-6.8 29.3-7.3.9-.8-1.1-6.5-2.1-6.4-.7 0-7.4 1.7-15 3.6zM202 160.5v3.5h27v-7h-27v3.5zM198 179.5c-2.1 2.2-2.2 2.7-.9 3.9 2.9 2.6 19.4 16.3 20.5 16.9.6.3 2.1-.7 3.2-2.3l2.2-2.9-10.7-9.1c-6-4.9-11.1-9-11.4-9-.3 0-1.6 1.1-2.9 2.5zM127 189v6h7v-12h-7v6zM180.2 200.2l.3 13.3 3.3.3 3.2.3V187h-7.1l.3 13.2z"/></svg>