<svg version="1" xmlns="http://www.w3.org/2000/svg" width="346.667" height="346.667" viewBox="0 0 260.000000 260.000000"><path d="M0 130v130h53v-23.7c0-18.4.4-25.1 1.6-30.1 1.2-4.7 1.3-7 .6-8.7-.9-2-.6-2.9 2.4-6.4 3-3.5 3.8-3.9 5.5-3 1.6.8 2.8.6 5.6-1.1 6.2-3.6 13.8-5 27.9-5h13.1l.7 4.7c.8 6 3.6 10.7 7.8 13.3 10.7 6.5 22.8.9 25.3-11.7l1.2-5.8 12.1-.3c18.7-.4 28.2 3.1 35.8 13.1 5.9 7.7 6.4 11 6.4 39.2V260h61V0H0v130zm117.8-53.6c14.4 7.3 34 11.4 47.7 10.2l7.2-.7-2.8 21.8c-2.7 20.6-4.3 27.9-7.6 33-.8 1.2-1.3 3.5-1.1 5.2.4 4.1-4.5 9.3-7.9 8.5-1.5-.4-4.5.3-8.1 1.9-8.8 4-18.4 5.2-26.6 3.3-9-2.1-14-4.8-20.2-11-6-6.1-9.7-12.8-11.3-20.6-1.1-5.9-6.2-45.3-5.8-45.5.1-.1 3.8-.9 8.1-1.8 4.4-.9 10.7-3 14-4.6 3.4-1.6 6.4-3 6.9-3 .4-.1 3.8 1.4 7.5 3.3zM74 98.4c.1.6.7 5.5 1.4 10.9l1.3 9.9-2.4.9c-3.3 1.2-4.8 1.1-8.8-.5-4-1.7-7.5-6.8-7.5-10.9 0-3.7 2.5-8.3 5.2-9.8 5.1-2.7 10.8-3 10.8-.5zm116.8.2c10.4 7.3 3.2 24.3-9.3 22-4.1-.8-4.1-1.1-2.4-14.8l1.2-8.8h4.1c2.3 0 5.2.7 6.4 1.6zM135 179.3c0 9.1-.2 10-2.5 12.2-2.6 2.7-5.1 3.1-8.8 1.4-3.6-1.6-4.7-5-4.7-14.7v-8.7h16v9.8z"/><path d="M98.2 102.2c-2.8 2.8-.6 9.8 3.1 9.8 4.3 0 6.1-4.5 3.7-9.1-1.2-2.1-5-2.5-6.8-.7zM147.4 103.4c-1.4 5.7 1.7 10.3 5.4 8 2.1-1.3 2.8-7 1.1-9-1.9-2.3-5.8-1.8-6.5 1zM108.6 120.6c-2.3 2.2-2 4.5.9 7.7 8.2 8.8 22.3 9.5 31.8 1.7 4.3-3.6 5.1-8.2 1.7-10-1.6-.8-2.8-.4-6.5 2.5-2.6 1.9-5.7 3.8-7.1 4.1-4.1 1-9.1-.5-13.4-4.1-4.8-4-5.3-4.1-7.4-1.9zM75 223.9c-.6 1.2-1 9.2-1 19V260h4.5c4.5 0 4.5 0 4.5-3.5V253h86v3.5c0 3.5 0 3.5 4.5 3.5h4.5v-17.4c0-9.6-.3-18.1-.6-19-.9-2.3-6.1-2.1-7.4.3-.5 1.1-1 6-1 11v9.1H83v-9.8c0-6.3-.4-10.2-1.2-11-1.8-1.8-5.6-1.4-6.8.7z"/></svg>