<svg version="1" xmlns="http://www.w3.org/2000/svg" width="346.667" height="346.667" viewBox="0 0 260.000000 260.000000"><path d="M0 130v130h71v-7.5c0-6.3-.3-7.8-2-9.2-2.8-2.5-2.8-10.3 0-12.1 1.8-1.1 2-2.3 2-13 0-12.9 1.3-19.4 5.6-27.9 2.9-5.6 10.2-14.3 12.1-14.3.5 0 1.5 1.9 2.2 4.2 3.5 11.8 15.1 23.4 27.9 28 7.5 2.7 20.5 2.9 28.4.5 12.6-3.9 24.8-15.3 29.2-27.7l2.3-6.2 5.1 5.6c6.8 7.6 11 16.2 12.2 25.6.5 4.1 1 18 1 30.7V260h63V0H0v130zM154.4 8.4c4.3 1.6 8.9 2.6 10.3 2.3 3.4-.6 8.4 2.3 7.7 4.5-.3 1.1 1.7 4.1 6.1 8.8 10.1 11.1 16.1 25 16.7 39 .4 10.3-.1 14-1.6 13.4-1.1-.4-1.3-1.8-.9-6 .6-6-.6-8.4-4.2-8.4-3.5 0-4.6 2.3-5.9 11.4-.6 4.6-1.4 8.7-1.7 9-1 1.1-12.3-2.4-19.7-6-8.8-4.3-18.4-13.3-22.6-21.4-4.5-8.5-5.8-8.8-13.4-3.1-2.9 2.2-7.8 4.9-11 6.1-7.1 2.7-20.9 3.7-29 2.1-6.9-1.3-9-.8-9.8 2.6-.7 2.6 1.8 6.3 4.3 6.3.8 0 1.3 1.2 1.3 3 0 3-.1 3.1-7.2 4.4-2.3.5-3.3-8.7-1.9-17.3 4-25 20.1-44 43.6-51.4 7.5-2.4 9.1-2.6 20.5-2.3 8.4.2 12.1.8 18.4 3zM133.9 64c6.9 10.6 22.7 21.7 36 25.1l5.1 1.3-.6 5c-3.1 24.7-5.1 30.2-14.1 38.7-8.1 7.7-14.7 10.3-26.3 10.3-8.7.1-10.1-.2-16-3-9.4-4.5-14.3-9.3-18.5-17.7-3.3-6.7-3.7-8.8-6.4-30.2-1.6-12.6-2.8-23.2-2.6-23.4.2-.2 4.2-.5 8.8-.7 9.5-.4 18.8-3 26.2-7.3 2.8-1.6 5-2.9 5.1-3 0-.1 1.5 2.1 3.3 4.9zM84.2 88.3c.4 2.1.9 7 1.1 10.9.2 7.1.2 7.1-2.8 7.9-4 1.1-7.1.2-10.5-3.3-2.5-2.4-3-3.8-3-7.7 0-7.5 4.7-12.3 11.5-11.8 2.5.2 3 .7 3.7 4zM194.1 86c2.6 1.5 4.9 6.2 4.9 10.4 0 6.7-8 12.5-14.7 10.7-2.4-.7-2.8-1.2-2.6-4.2.7-9.2 1.4-11.6 3.8-12.7 1.3-.6 3-2 3.7-3.2 1.5-2.3 2.1-2.4 4.9-1zM88.4 121.4c.9 2.8 2.6 6.8 3.9 9 3.7 6 13.4 15.2 19.3 18.3 4.4 2.3 5.4 3.3 5.4 5.4 0 2.5-.3 2.6-6.2 3.2-3.5.3-8.5 1.4-11.1 2.3l-4.8 1.6-4.7-2.9c-2.7-1.7-5.8-4.8-7.5-7.5-2.9-4.6-4-10.6-5.9-29.8l-.5-4.5 5.2-.1 5.2-.1 1.7 5.1zm99-4.4h2.8l-.7 8.8c-.6 7.4-.4 9 .9 10.1 2.9 2.4 1.1 10.1-2.3 10.1-.5 0-2.2 2.2-3.8 4.9-1.9 3.1-4.8 5.9-7.7 7.6-4.6 2.7-4.6 2.7-9.3 1.1-2.7-1-7.6-2-11-2.3-6-.6-6.3-.7-6.3-3.2 0-2.2.9-3.1 5.3-5.3 10.6-5.3 19.8-16 23.4-27.5 1.5-4.6 2-5.3 3.8-4.9 1.1.3 3.3.6 4.9.6zm-45.9 45.7c0 8-.3 9.5-2.1 11.3-3.1 3.2-8.2 3-11.1-.4-2-2.4-2.3-3.7-2.3-11.9v-9.2l7.7.5 7.8.5v9.2zm-23.5 5.5c.1 9 6.9 15.8 15.6 15.8 8.6 0 14.5-5.5 15.9-14.7l.7-4.5 5 .6c2.7.4 7.4 1.6 10.4 2.7 5.4 2 5.5 2.2 4.9 5.2-1.8 8.9-9.5 19.2-18 24.3-6.3 3.7-15.7 5.7-22.7 4.9-15.5-1.8-30.2-15-32.5-29.2-.5-3.1-.3-3.4 3.2-4.9 4.2-1.7 10.4-3.1 14.8-3.3 2.4-.1 2.7.2 2.7 3.1z"/><path d="M108.7 89.1c-2.1 1.2-2.3 7.2-.2 8.9.8.6 2.3.9 3.5.5 1.6-.5 2-1.5 2-4.5 0-4.4-2.3-6.5-5.3-4.9zM154.6 89.6c-2.9 2.8-1.3 9.4 2.2 9.4 2.6 0 4.2-2 4.2-5.1 0-2.7-2.2-5.9-4-5.9-.5 0-1.6.7-2.4 1.6zM117.2 107.2c-2.1 2.1-1.3 5.5 2.1 8.4 9 7.6 21.1 7.2 29.5-.8 3.4-3.4 4-5.6 2-7.6-1.8-1.8-4.3-1.5-6.4.9-5.7 6.3-15.3 6.5-21 .4-2.5-2.8-4.4-3.1-6.2-1.3zM86.2 203.2c-.9.9-1.2 8.7-1.2 29V260h8v-27.8c0-28.6-.2-30.2-4-30.2-.9 0-2.1.5-2.8 1.2zM176.2 203.2c-.9.9-1.2 8.7-1.2 29V260h8v-27.4c0-23.6-.2-27.7-1.6-29-1.9-1.9-3.6-2-5.2-.4zM125 217.5c-.9 1.1-1.1 3.2-.6 7 .5 4.7.3 5.9-1.9 9.1-9.6 14.1 9.3 29.5 21.4 17.3 4.5-4.5 5.1-10.4 1.6-16.6-2.3-4.1-2.6-5.5-2-9.9.5-4 .3-5.5-1-6.8-3.4-3.3-6.3-1.2-7.2 5.4-.7 5.1-1.9 5.1-2.8 0-1-6.2-4.7-8.9-7.5-5.5zm13.9 21.7c1.3 2.3 1.3 2.9-.2 5.2-3 4.5-10.7 2.5-10.7-2.8.1-6.4 7.7-8 10.9-2.4z"/></svg>