<svg version="1" xmlns="http://www.w3.org/2000/svg" width="346.667" height="346.667" viewBox="0 0 260.000000 260.000000"><path d="M0 130v130h260V0H0v130zM137.5 27.4C144.3 29.2 164 38.6 164 40c0 1.7-3.4 8-4.3 8-.4 0-3.9-1.8-7.5-3.9-11.3-6.7-19.4-8.6-35.7-8.6-15.7 0-21.8 1.4-35 8.3-10 5.2-23.6 19-29.2 29.7-6.8 13.1-10.5 30.7-6.7 32.2 3.1 1.2 4.8-1.2 6-8.3 2.7-15.5 8.8-26.8 20.6-37.9C84.2 48.1 99.8 42 116.5 42c14.2 0 27.9 4.3 38 11.7 3.6 2.7 4 3.4 4.3 7.9.6 10.2 7.6 20.6 16.9 25.4 3.6 1.9 4.3 2.7 5.4 7.3 1.8 7.3 1.5 22-.5 29.7-3.1 12.1-8.2 20.7-17.5 30.1-6.9 6.9-10.3 9.4-17.3 12.8-33 16.2-72.4 2.6-88.3-30.4-2.4-5-4.8-11.6-5.4-14.8-.6-3.2-1.3-6.2-1.6-6.8-1-1.5-5.2-1-5.9.7-1 2.5 1.9 14.4 5.3 21.8 17.7 39.1 63.2 54.7 101.6 34.8 10.3-5.4 23.8-19.1 29.4-29.9 7.2-14.1 9.9-30.4 7.7-45.9l-.7-5.1 4.8-.6c2.6-.3 4.9-.4 5-.3.1.1.8 4.7 1.4 10.2.7 5.4 1.8 10.6 2.5 11.5 2.1 2.4 1.7 5.5-1 8.4-1.4 1.5-2.9 4.8-3.5 7.5-4.6 21.5-22.5 43.7-43.9 54.4-19.7 9.9-48.8 10.6-69.7 1.6-7.8-3.4-20.5-12.2-26.6-18.6C36.6 143.9 29 114.1 36.7 86c8.4-30.5 32.6-52.8 64.3-59.6 8.2-1.7 28.3-1.2 36.5 1zm64.1 11.4c15.9 8.2 16.4 31.1 1 40.7-4.4 2.7-5.8 3-12.6 3s-8.2-.3-12.5-3c-14-8.8-14.8-29.6-1.3-39.2 7.5-5.5 16.8-6 25.4-1.5zM191.5 171l5 5-5.8 5.8-5.7 5.7-5.2-5.3-5.3-5.2 5.5-5.5c3-3 5.7-5.5 6-5.5.3 0 2.8 2.3 5.5 5zm19 14.1c3.5 3.3 6 4.9 7.3 4.7 2.7-.4 6.2 3 6.2 6.1 0 1.9 3 5.5 12 14.6 6.6 6.7 12 12.7 12 13.4 0 2-13.4 15.1-15.6 15.1-2.3.1-43.4-41.7-43.4-44.1 0-1.8 13.2-14.9 15-14.9.6 0 3.5 2.3 6.5 5.1z"/><path d="M103.9 57.4c-11.6 3.3-23.1 13.1-28.5 24.3-3.6 7.7-5.1 18.3-3.7 26.5.8 5.1.8 6.8-.4 9.2-4.6 8.9 1.5 19.1 11.3 19.1 4.4 0 4.4.1 5.9 4.6 2.2 6.5 7.5 12.2 14.7 15.8 5 2.6 7.3 3.1 12.9 3.1 12.8 0 21.8-5.7 27.2-17 2.8-6 3.5-6.8 5.4-6.3 3.4.8 9-1.5 11.8-4.8 2.8-3.5 3.4-10.6 1.1-14.7-1.9-3.5-.1-12.6 3.1-15.8 2.8-2.8 2.4-5.8-1.2-8.9-1.2-1.1-3.8-5.4-5.7-9.5-5.9-12.8-15.3-21.2-27.9-25.1-7-2.2-18.9-2.4-26-.5zm29.3 9.4c8.5 4.1 22.6 18.8 14.3 15-1.9-.8-2.8-.8-4 .2-3.2 2.6-1.7 4.9 6.6 10.2 9.3 5.9 9.2 6.4-.8 9.7-11.4 3.8-23.7 2.5-36.5-4l-5.7-2.9-6.3 3c-5.2 2.5-7.6 3-13.5 3-7 0-7.3.1-7.9 2.7-.6 2-.2 3.1 1.6 4.5 2.2 1.8 2.2 1.8.1 1.8-2.7 0-3.5-3.2-2.9-11.9 1.1-15.3 12-28.8 27.1-33.7 2.6-.9 7.4-1.3 12.7-1.1 7.1.3 9.6.8 15.2 3.5zm-18.5 39.7c7.5 3.1 14.6 4.5 22.4 4.5h5.9l-.5 3.7c-.3 2.1-1.1 8.2-1.9 13.5-1.7 11.7-4.5 17.2-11.2 21.6-13.2 8.8-31.3 2.2-35.4-12.8-1-3.7-4-24.1-4-27.2 0-1.3.8-1.8 2.8-1.8 1.5 0 5.2-1.1 8.2-2.4 3-1.3 6-2.2 6.5-2 .6.1 3.8 1.4 7.2 2.9zm-30.3 11.7c.3.7.7 3.7 1 6.5l.5 5.3h-3.4c-5.9 0-8.5-6.4-4.5-10.8 2.3-2.4 5.8-2.9 6.4-1zm70 .4c4.5 4.5 2.1 11.4-4 11.4h-3.5l.6-4.8c.4-2.6.9-5.5 1.2-6.5.6-2.1 3.6-2.2 5.7-.1z"/><path d="M100.2 118.9c-.8.5-1.2 2.1-1 3.7.2 2.3.8 2.9 2.8 2.9 1.8 0 2.6-.6 2.8-2.3.3-2.2-1.3-5.2-2.7-5.2-.3 0-1.2.4-1.9.9zM129 119.4c-.6.8-1 2.5-.8 3.8.2 1.7 1 2.3 2.8 2.3 2 0 2.6-.6 2.8-2.9.5-4-2.5-5.9-4.8-3.2zM104.7 131.4c-.7 1.9 1.8 5.3 5.3 7.1 5.7 2.9 14 1.2 17.4-3.6 3.1-4.5-1.4-6.7-6.1-2.9-1.4 1.1-3.6 2-4.8 2-1.2 0-3.4-.9-4.8-2-2.9-2.3-6.3-2.6-7-.6zM194.7 48.8c-2.1 2.3-2.2 6.8-.2 7.6 2.1.8 2 7.2-.1 8-1 .4-1.4 1.6-1.2 3.8.3 3.1.5 3.3 4.7 3.6 7 .5 9.1-.4 9.1-3.8 0-1.6-.7-3.3-1.5-3.7-1-.6-1.5-3.1-1.7-8.8l-.3-8-3.6-.3c-2.4-.2-4 .3-5.2 1.6zM179.2 51.2c-.6.6-1.2 1.7-1.2 2.3 0 .5-1 1.5-2.2 2-3.5 1.5-3.6 6.2-.4 7.7 1.4.6 2.6 1.5 2.6 1.9 0 1 2.9 3.9 3.9 3.9.4 0 2.6-1.8 5-4.1 4.6-4.5 5.2-7.7 1.5-9.3-1.1-.5-2.5-1.9-3-3-1.1-2.4-4.4-3.2-6.2-1.4z"/></svg>