<svg version="1" xmlns="http://www.w3.org/2000/svg" width="346.667" height="346.667" viewBox="0 0 260.000000 260.000000"><path d="M0 130v130h260V0H0v130zm125.9-93.5L137.7 48h47.7l4.3-4.2c3.7-3.6 4.3-4.8 4.3-8.4 0-11.4 16.1-13.4 18.5-2.3 1.3 5.9-5.6 12.7-11.4 11.2-1.7-.4-3.3.4-6.7 3.8l-4.4 4.3v47.8l11.5 12.4c6.3 6.8 11.5 13.1 11.5 13.9 0 3.1-10.1 11.5-19 15.9-11.6 5.8-17.8 7.1-33.5 7-14.1-.1-17.4-.7-29.9-5.9-1.6-.7-1.8-.5-1.3 1.6.3 1.3 2.5 13 4.8 26l4.2 23.7 5 .5c6.8.6 8.7 3 8.7 10.8v5.9h6.4c7 0 10.7 2.1 12.1 6.7l.6 2.3h-60.5c-58.7 0-60.6-.1-60.6-1.9 0-1 .9-2.9 1.9-4.2 1.6-2 3.1-2.5 9.3-2.9l7.3-.5.5-6.7c.3-3.7 1-7.2 1.7-7.9.6-.6 3.4-1.4 6.2-1.7 3.5-.3 5.2-.9 5.5-2.1.7-2.2 10.3-58 11.5-66.4.5-3.7 1.6-8.1 2.5-9.8 1.4-2.9 1.4-3.4-.8-7.8-7.1-13.9-9.5-32.5-6.1-47.7C93.2 44.5 105.1 25 111.7 25c1.8 0 5.7 3.2 14.2 11.5z"/><path d="M152.5 63l9 9 9-9 9-9h-36l9 9zM174.8 67.7l-8.7 8.8 8.3 9c4.6 4.9 8.7 8.7 9 8.4.4-.3.5-8.3.4-17.8l-.3-17.1-8.7 8.7zM107.2 119.2c-5.2 2.5-3.4 11 2.5 11.6 2.4.2 3.6-.3 5.2-2.4 2.7-3.4 2.7-4.9-.4-7.9-2.6-2.7-3.8-2.9-7.3-1.3z"/></svg>